name analog
datacolumns 19
datarows 44
range 0.41050000000000003 0.43200000000000005
endheader
time	ground_force_vx	ground_force_vy	ground_force_vz	ground_force_px	ground_force_py	ground_force_pz	l_ground_force_vx	l_ground_force_vy	l_ground_force_vz	l_ground_force_px	l_ground_force_py	l_ground_force_pz	ground_torque_x	ground_torque_y	ground_torque_z	l_ground_torque_x	l_ground_torque_y	l_ground_torque_z
0.41050000000000003	-0.0	-0.0	-0.0	4.103683471679688	32.84844970703125	-259.3952331542969	1.993570566177368	-36.34196472167969	-261.9462280273437	-0.0	-0.0	-0.0	-0.0	-0.0	-0.0	72038.40625	-21651.568359375	1971.046630859375
0.41100000000000003	-0.0	-0.0	-0.0	3.6501059532165527	32.7387809753418	-257.6809387207031	1.7998239994049072	-36.65805435180664	-260.7982482910156	-0.0	-0.0	-0.0	-0.0	-0.0	-0.0	72175.0390625	-21840.12890625	1934.1988525390625
0.41150000000000003	-0.0	-0.0	-0.0	3.492401123046875	32.621726989746094	-257.4393005371094	1.7531229257583618	-36.65350341796875	-261.2484436035156	-0.0	-0.0	-0.0	-0.0	-0.0	-0.0	72373.1328125	-21856.318359375	1881.9310302734373
0.41200000000000003	-0.0	-0.0	-0.0	3.787957429885864	32.88252639770508	-257.4682006835937	1.2631210088729858	-36.7458381652832	-262.6453552246094	-0.0	-0.0	-0.0	-0.0	-0.0	-0.0	72479.6953125	-21719.6796875	1897.142578125
0.41250000000000003	-0.0	-0.0	-0.0	3.8633835315704346	32.84120178222656	-257.5763854980469	1.355658769607544	-36.56892395019531	-262.212890625	-0.0	-0.0	-0.0	-0.0	-0.0	-0.0	72350.421875	-21745.12109375	1792.823486328125
0.41300000000000003	-0.0	-0.0	-0.0	3.4934449195861816	32.855552673339844	-256.84375	1.2171417474746704	-36.54397201538086	-262.81353759765625	-0.0	-0.0	-0.0	-0.0	-0.0	-0.0	72568.6875	-21869.013671875	1795.140625
0.41350000000000003	-0.0	-0.0	-0.0	3.889899253845215	32.30669403076172	-255.30030822753903	1.0859025716781616	-36.4555778503418	-264.055419921875	-0.0	-0.0	-0.0	-0.0	-0.0	-0.0	72543.734375	-22110.80078125	1713.1029052734375
0.41400000000000003	-0.0	-0.0	-0.0	3.500030517578125	32.5058708190918	-254.66619873046875	0.8626903891563416	-36.2148666381836	-263.17596435546875	-0.0	-0.0	-0.0	-0.0	-0.0	-0.0	72445.6875	-22004.951171875	1711.929443359375
0.41450000000000004	-0.0	-0.0	-0.0	3.279890537261963	32.5382080078125	-254.1845703125	0.8440911173820496	-36.25471878051758	-262.1918029785156	-0.0	-0.0	-0.0	-0.0	-0.0	-0.0	72783.5390625	-22152.58984375	1675.9451904296875
0.41500000000000004	-0.0	-0.0	-0.0	2.922980546951294	31.88773727416992	-254.76806640625	0.5538406372070312	-36.30260848999024	-263.26031494140625	-0.0	-0.0	-0.0	-0.0	-0.0	-0.0	72968.5859375	-21935.634765625	1607.460693359375
0.41550000000000004	-0.0	-0.0	-0.0	3.484321117401123	32.06083297729492	-253.74966430664065	0.3115747570991516	-36.01154708862305	-264.22265625	-0.0	-0.0	-0.0	-0.0	-0.0	-0.0	72799.8515625	-22050.904296875	1578.4642333984375
0.41600000000000004	-0.0	-0.0	-0.0	3.206777811050415	32.28628921508789	-253.66673278808597	0.4435539245605469	-36.013633728027344	-264.0514221191406	-0.0	-0.0	-0.0	-0.0	-0.0	-0.0	73084.3984375	-22172.90625	1444.7059326171875
0.41650000000000004	-0.0	-0.0	-0.0	3.143529176712036	31.772706985473636	-251.71543884277344	0.4669548273086548	-35.83692932128906	-263.7872619628906	-0.0	-0.0	-0.0	-0.0	-0.0	-0.0	72690.5546875	-22334.1796875	1615.471923828125
0.41700000000000004	-0.0	-0.0	-0.0	3.1223678588867188	31.37818145751953	-251.44715881347656	0.5759449005126953	-36.01350402832031	-262.9058532714844	-0.0	-0.0	-0.0	-0.0	-0.0	-0.0	72866.4921875	-22327.208984375	1555.7017822265625
0.41750000000000004	-0.0	-0.0	-0.0	3.250211477279663	31.4244327545166	-250.3888092041016	0.6658562421798706	-35.858604431152344	-263.4369812011719	-0.0	-0.0	-0.0	-0.0	-0.0	-0.0	72890.8671875	-22380.1796875	1504.5830078125
0.41800000000000004	-0.0	-0.0	-0.0	3.254310131072998	30.86046600341797	-250.22056579589844	0.3548431396484375	-35.39512252807617	-263.5262145996094	-0.0	-0.0	-0.0	-0.0	-0.0	-0.0	72766.6328125	-22441.0390625	1489.432861328125
0.41850000000000004	-0.0	-0.0	-0.0	3.322232484817505	30.94967269897461	-248.79486083984372	0.4209948182106018	-35.50531768798828	-264.3097839355469	-0.0	-0.0	-0.0	-0.0	-0.0	-0.0	72922.4140625	-22581.96484375	1407.4415283203125
0.41900000000000004	-0.0	-0.0	-0.0	3.325464963912964	30.774642944335938	-249.6255798339844	0.6654500961303711	-35.240116119384766	-262.7361145019531	-0.0	-0.0	-0.0	-0.0	-0.0	-0.0	73071.1796875	-22627.30859375	1534.0523681640625
0.41950000000000004	-0.0	-0.0	-0.0	3.457639694213867	30.485523223876957	-248.18849182128903	0.5766135454177856	-35.46116638183594	-263.4349365234375	-0.0	-0.0	-0.0	-0.0	-0.0	-0.0	72869.078125	-22690.177734375	1489.4378662109375
0.42000000000000004	-0.0	-0.0	-0.0	3.4142658710479736	30.32858085632324	-246.3378143310547	0.8426001071929932	-35.13018035888672	-262.03887939453125	-0.0	-0.0	-0.0	-0.0	-0.0	-0.0	72833.5078125	-22617.6015625	1578.5496826171875
0.42050000000000004	-0.0	-0.0	-0.0	3.100651502609253	30.039289474487305	-245.9944610595703	0.5540102124214172	-35.06371307373047	-263.0891418457031	-0.0	-0.0	-0.0	-0.0	-0.0	-0.0	72797.5703125	-22982.28125	1496.8897705078125
0.42100000000000004	-0.0	-0.0	-0.0	3.409686326980591	30.554149627685547	-245.7270050048828	0.5322647094726562	-35.06371307373047	-262.8263244628906	-0.0	-0.0	-0.0	-0.0	-0.0	-0.0	72764.7890625	-23128.666015625	1482.1597900390625
0.42150000000000004	-0.0	-0.0	-0.0	3.2789363861083984	29.79318618774414	-243.0671844482422	-0.0224572420120239	-34.77638626098633	-263.17193603515625	-0.0	-0.0	-0.0	-0.0	-0.0	-0.0	72649.90625	-22940.4140625	1400.005859375
0.42200000000000004	-0.0	-0.0	-0.0	3.1881020069122314	29.90403175354004	-244.1340789794922	-0.0436792820692062	-35.26142501831055	-264.0419311523437	-0.0	-0.0	-0.0	-0.0	-0.0	-0.0	72429.1171875	-22928.146484375	1377.2412109375
0.42250000000000004	-0.0	-0.0	-0.0	3.2360758781433105	29.971036911010746	-241.4009704589844	0.0887107849121093	-35.01872634887695	-261.34326171875	-0.0	-0.0	-0.0	-0.0	-0.0	-0.0	72316.5546875	-22791.486328125	1341.159912109375
0.42300000000000004	-0.0	-0.0	-0.0	3.0331573486328125	29.63536834716797	-242.01947021484372	-0.0867794454097747	-34.710426330566406	-259.8656005859375	-0.0	-0.0	-0.0	-0.0	-0.0	-0.0	72148.359375	-22974.994140625	1363.2451171875
0.42350000000000004	-0.0	-0.0	-0.0	2.9668095111846924	29.592039108276367	-241.93121337890625	0.1525365710258484	-34.74919128417969	-260.3947448730469	-0.0	-0.0	-0.0	-0.0	-0.0	-0.0	72150.875	-22888.556640625	1429.6259765625
0.42400000000000004	-0.0	-0.0	-0.0	3.345612049102783	29.167814254760746	-241.3080291748047	-0.111507199704647	-34.64726257324219	-259.6985778808594	-0.0	-0.0	-0.0	-0.0	-0.0	-0.0	71799.546875	-23164.25	1295.5103759765625
0.42450000000000004	-0.0	-0.0	-0.0	3.077864170074463	28.900684356689453	-239.63137817382807	-0.1115651354193687	-34.42270278930664	-259.9380798339844	-0.0	-0.0	-0.0	-0.0	-0.0	-0.0	71538.3359375	-23122.666015625	1276.1834716796875
0.42500000000000004	-0.0	-0.0	-0.0	3.233900785446167	29.101036071777344	-240.3387908935547	-0.2202831953763961	-34.46828079223633	-259.07049560546875	-0.0	-0.0	-0.0	-0.0	-0.0	-0.0	71459.40625	-23185.201171875	1288.6405029296875
0.42550000000000004	-0.0	-0.0	-0.0	3.0331573486328125	28.92262458801269	-239.6303253173828	0.0492855608463287	-34.29171371459961	-259.7558898925781	-0.0	-0.0	-0.0	-0.0	-0.0	-0.0	71513.8515625	-23202.34765625	1407.50830078125
0.42600000000000005	-0.0	-0.0	-0.0	2.855351209640503	28.787891387939453	-237.42581176757807	0.1774215698242187	-34.28826904296875	-257.26171875	-0.0	-0.0	-0.0	-0.0	-0.0	-0.0	71448.4453125	-23411.306640625	1354.7857666015625
0.42650000000000005	-0.0	-0.0	-0.0	2.989940404891968	28.500139236450195	-238.7532958984375	0.308573305606842	-33.96159362792969	-256.9906921386719	-0.0	-0.0	-0.0	-0.0	-0.0	-0.0	71183.5078125	-23290.240234375	1304.5472412109375
0.42700000000000005	-0.0	-0.0	-0.0	3.5006139278411865	28.521728515625	-238.13275146484372	0.0232026576995849	-33.69676971435547	-256.1107788085937	-0.0	-0.0	-0.0	-0.0	-0.0	-0.0	71185.7109375	-23756.5390625	1326.33935546875
0.42750000000000005	-0.0	-0.0	-0.0	3.500437498092652	29.120136260986328	-237.9535675048828	0.1774215698242187	-33.62740707397461	-258.0975341796875	-0.0	-0.0	-0.0	-0.0	-0.0	-0.0	71145.671875	-23613.142578125	1195.15234375
0.42800000000000005	-0.0	-0.0	-0.0	3.5456817150115967	28.81183815002441	-237.6831817626953	0.3828242123126983	-33.75287628173828	-256.736572265625	-0.0	-0.0	-0.0	-0.0	-0.0	-0.0	70991.7109375	-23822.40625	1276.609375
0.42850000000000005	-0.0	-0.0	-0.0	3.566442012786865	28.766342163085938	-237.86276245117188	0.5088680982589722	-33.53894805908203	-256.6993408203125	-0.0	-0.0	-0.0	-0.0	-0.0	-0.0	70813.234375	-24274.431640625	1332.918212890625
0.42900000000000005	-0.0	-0.0	-0.0	3.7651875019073486	28.81422615051269	-237.87115478515625	0.709686279296875	-33.43232345581055	-256.8111877441406	-0.0	-0.0	-0.0	-0.0	-0.0	-0.0	71178.5390625	-24351.875	1326.8948974609375
0.42950000000000005	-0.0	-0.0	-0.0	3.8131089210510254	29.099796295166016	-238.2147979736328	1.41937255859375	-33.49736022949219	-256.46258544921875	-0.0	-0.0	-0.0	-0.0	-0.0	-0.0	70731.609375	-24374.1796875	1386.711181640625
0.43000000000000005	-0.0	-0.0	-0.0	3.4820072650909424	29.010547637939453	-238.3853759765625	1.721325159072876	-33.10280227661133	-256.2996826171875	-0.0	-0.0	-0.0	-0.0	-0.0	-0.0	70917.078125	-24590.1328125	1529.357177734375
0.43050000000000005	-0.0	-0.0	-0.0	4.391286373138428	28.570951461791992	-238.92007446289065	2.194092035293579	-33.06751251220703	-257.0451965332031	-0.0	-0.0	-0.0	-0.0	-0.0	-0.0	70854.0390625	-24765.33984375	1610.8546142578125
0.43100000000000005	-0.0	-0.0	-0.0	4.169745922088623	28.92450523376465	-235.96435546875	2.4664273262023926	-32.943992614746094	-257.34942626953125	-0.0	-0.0	-0.0	-0.0	-0.0	-0.0	71058.640625	-24908.97265625	1883.944580078125
0.43150000000000005	-0.0	-0.0	-0.0	3.98403549194336	29.37027359008789	-237.5839080810547	2.7976415157318115	-33.33819961547852	-256.62646484375	-0.0	-0.0	-0.0	-0.0	-0.0	-0.0	71189.3984375	-25069.431640625	1962.9185791015625
0.43200000000000005	-0.0	-0.0	-0.0	4.677662372589111	28.920854568481445	-238.1354522705078	3.7429213523864746	-33.208953857421875	-257.257568359375	-0.0	-0.0	-0.0	-0.0	-0.0	-0.0	71223.03125	-25477.859375	2130.0380859375
